<?xml version="1.0" encoding="utf-8"?>
<!-- Generator: Adobe Illustrator 22.1.0, SVG Export Plug-In . SVG Version: 6.00 Build 0)  -->
<svg version="1.1" id="Capa_1" xmlns="http://www.w3.org/2000/svg" xmlns:xlink="http://www.w3.org/1999/xlink" x="0px" y="0px"
	 viewBox="0 0 20 20" style="enable-background:new 0 0 20 20;" xml:space="preserve">
<style type="text/css">
	.st0{fill:#52BA7C;}
	.st1{fill:#FFFFFF;}
	.st2{fill:#787F82;}
	.st3{fill:#FB6542;}
	.st4{fill:#105568;}
</style>
<g>
	<path class="st0" d="M-45.1-14.8h-4c-4.4,0-8-3.6-8-8v-4c0-4.4,3.6-8,8-8h4c4.4,0,8,3.6,8,8v4C-37.1-18.4-40.7-14.8-45.1-14.8z"/>
	<path class="st1" d="M-41.1-26.3h-4.5v-4.5c0-0.8-0.7-1.5-1.5-1.5h0c-0.8,0-1.5,0.7-1.5,1.5v4.5h-4.5c-0.8,0-1.5,0.7-1.5,1.5
		s0.7,1.5,1.5,1.5h4.5v4.5c0,0.8,0.7,1.5,1.5,1.5h0c0.8,0,1.5-0.7,1.5-1.5v-4.5h4.5c0.8,0,1.5-0.7,1.5-1.5S-40.3-26.3-41.1-26.3z"/>
</g>
<path class="st2" d="M12,2c3.3,0,6,2.7,6,6v4c0,3.3-2.7,6-6,6H8c-3.3,0-6-2.7-6-6V8c0-3.3,2.7-6,6-6H12 M12,0H8C3.6,0,0,3.6,0,8v4
	c0,4.4,3.6,8,8,8h4c4.4,0,8-3.6,8-8V8C20,3.6,16.4,0,12,0L12,0z"/>
<g>
	<path class="st2" d="M58.7-44.8c3.3,0,6,2.7,6,6v4c0,3.3-2.7,6-6,6h-4c-3.3,0-6-2.7-6-6v-4c0-3.3,2.7-6,6-6H58.7 M58.7-46.8h-4
		c-4.4,0-8,3.6-8,8v4c0,4.4,3.6,8,8,8h4c4.4,0,8-3.6,8-8v-4C66.7-43.3,63.1-46.8,58.7-46.8L58.7-46.8z"/>
	<path d="M62-41.1c-0.6-0.6-1.5-0.6-2.1,0l-5.3,5.3l-1.1-1.1c-0.6-0.6-1.5-0.6-2.1,0c-0.6,0.6-0.6,1.5,0,2.1l2.1,2.1
		c0.6,0.6,1.5,0.6,2.1,0L62-39C62.6-39.5,62.6-40.5,62-41.1z"/>
</g>
<g>
	<path class="st3" d="M1-16h-4c-4.4,0-8-3.6-8-8v-4c0-4.4,3.6-8,8-8h4c4.4,0,8,3.6,8,8v4C9-19.6,5.4-16,1-16z"/>
	<path class="st1" d="M1.1-26l3.2-3.2c0.6-0.6,0.6-1.5,0-2.1c-0.6-0.6-1.5-0.6-2.1,0L-1-28.1l-3.2-3.2c-0.6-0.6-1.5-0.6-2.1,0
		c-0.6,0.6-0.6,1.5,0,2.1l3.2,3.2l-3.2,3.2c-0.6,0.6-0.6,1.5,0,2.1c0.6,0.6,1.5,0.6,2.1,0l3.2-3.2l3.2,3.2c0.6,0.6,1.5,0.6,2.1,0
		c0.6-0.6,0.6-1.5,0-2.1L1.1-26z"/>
</g>
<g>
	<path class="st4" d="M-35.8,5h-18.3C-54.6,5-55,4.6-55,4.2V3.8c0-0.5,0.4-0.8,0.8-0.8h18.3c0.5,0,0.8,0.4,0.8,0.8v0.3
		C-35,4.6-35.4,5-35.8,5z"/>
	<path class="st4" d="M-35.8,11h-18.3c-0.5,0-0.8-0.4-0.8-0.8V9.8c0-0.5,0.4-0.8,0.8-0.8h18.3c0.5,0,0.8,0.4,0.8,0.8v0.3
		C-35,10.6-35.4,11-35.8,11z"/>
	<path class="st4" d="M-35.8,17h-18.3c-0.5,0-0.8-0.4-0.8-0.8v-0.3c0-0.5,0.4-0.8,0.8-0.8h18.3c0.5,0,0.8,0.4,0.8,0.8v0.3
		C-35,16.6-35.4,17-35.8,17z"/>
</g>
</svg>
