<?xml version="1.0" encoding="utf-8"?>
<!-- Generator: Adobe Illustrator 22.1.0, SVG Export Plug-In . SVG Version: 6.00 Build 0)  -->
<svg version="1.1" id="Capa_1" xmlns="http://www.w3.org/2000/svg" xmlns:xlink="http://www.w3.org/1999/xlink" x="0px" y="0px"
	 viewBox="0 0 20 20" style="enable-background:new 0 0 20 20;" xml:space="preserve">
<style type="text/css">
	.st0{fill:#52BA7C;}
	.st1{fill:#FFFFFF;}
	.st2{fill:#787F82;}
	.st3{fill:#FB6542;}
	.st4{fill:#105568;}
</style>
<g>
	<path class="st0" d="M-25.1-26.8h-4c-4.4,0-8-3.6-8-8v-4c0-4.4,3.6-8,8-8h4c4.4,0,8,3.6,8,8v4C-17.1-30.4-20.7-26.8-25.1-26.8z"/>
	<path class="st1" d="M-21.1-38.3h-4.5v-4.5c0-0.8-0.7-1.5-1.5-1.5h0c-0.8,0-1.5,0.7-1.5,1.5v4.5h-4.5c-0.8,0-1.5,0.7-1.5,1.5
		s0.7,1.5,1.5,1.5h4.5v4.5c0,0.8,0.7,1.5,1.5,1.5h0c0.8,0,1.5-0.7,1.5-1.5v-4.5h4.5c0.8,0,1.5-0.7,1.5-1.5S-20.3-38.3-21.1-38.3z"/>
</g>
<path class="st2" d="M100.6-44.8c3.3,0,6,2.7,6,6v4c0,3.3-2.7,6-6,6h-4c-3.3,0-6-2.7-6-6v-4c0-3.3,2.7-6,6-6H100.6 M100.6-46.8h-4
	c-4.4,0-8,3.6-8,8v4c0,4.4,3.6,8,8,8h4c4.4,0,8-3.6,8-8v-4C108.6-43.3,105-46.8,100.6-46.8L100.6-46.8z"/>
<g>
	<path class="st2" d="M58.7-44.8c3.3,0,6,2.7,6,6v4c0,3.3-2.7,6-6,6h-4c-3.3,0-6-2.7-6-6v-4c0-3.3,2.7-6,6-6H58.7 M58.7-46.8h-4
		c-4.4,0-8,3.6-8,8v4c0,4.4,3.6,8,8,8h4c4.4,0,8-3.6,8-8v-4C66.7-43.3,63.1-46.8,58.7-46.8L58.7-46.8z"/>
	<path d="M62-41.1c-0.6-0.6-1.5-0.6-2.1,0l-5.3,5.3l-1.1-1.1c-0.6-0.6-1.5-0.6-2.1,0c-0.6,0.6-0.6,1.5,0,2.1l2.1,2.1
		c0.6,0.6,1.5,0.6,2.1,0L62-39C62.6-39.5,62.6-40.5,62-41.1z"/>
</g>
<g>
	<path class="st3" d="M16.8-26.8h-4c-4.4,0-8-3.6-8-8v-4c0-4.4,3.6-8,8-8h4c4.4,0,8,3.6,8,8v4C24.8-30.4,21.2-26.8,16.8-26.8z"/>
	<path class="st1" d="M16.9-36.8l3.2-3.2c0.6-0.6,0.6-1.5,0-2.1c-0.6-0.6-1.5-0.6-2.1,0L14.8-39l-3.2-3.2c-0.6-0.6-1.5-0.6-2.1,0
		c-0.6,0.6-0.6,1.5,0,2.1l3.2,3.2l-3.2,3.2c-0.6,0.6-0.6,1.5,0,2.1c0.6,0.6,1.5,0.6,2.1,0l3.2-3.2l3.2,3.2c0.6,0.6,1.5,0.6,2.1,0
		c0.6-0.6,0.6-1.5,0-2.1L16.9-36.8z"/>
</g>
<g>
	<path class="st4" d="M19.2,5H0.8C0.4,5,0,4.6,0,4.2l0-0.3C0,3.4,0.4,3,0.8,3h18.3C19.6,3,20,3.4,20,3.8v0.3C20,4.6,19.6,5,19.2,5z"
		/>
	<path class="st4" d="M19.2,11H0.8C0.4,11,0,10.6,0,10.2l0-0.3C0,9.4,0.4,9,0.8,9h18.3C19.6,9,20,9.4,20,9.8v0.3
		C20,10.6,19.6,11,19.2,11z"/>
	<path class="st4" d="M19.2,17H0.8C0.4,17,0,16.6,0,16.2l0-0.3C0,15.4,0.4,15,0.8,15h18.3c0.5,0,0.8,0.4,0.8,0.8v0.3
		C20,16.6,19.6,17,19.2,17z"/>
</g>
</svg>
