<?xml version="1.0" encoding="utf-8"?>
<!-- Generator: Adobe Illustrator 22.1.0, SVG Export Plug-In . SVG Version: 6.00 Build 0)  -->
<svg version="1.1" id="Capa_1" xmlns="http://www.w3.org/2000/svg" xmlns:xlink="http://www.w3.org/1999/xlink" x="0px" y="0px"
	 viewBox="0 0 20 20" style="enable-background:new 0 0 20 20;" xml:space="preserve">
<style type="text/css">
	.st0{fill:#52BA7C;}
	.st1{fill:#FFFFFF;}
	.st2{fill:#787F82;}
	.st3{fill:#FB6542;}
	.st4{fill:#105568;}
</style>
<g>
	<path class="st0" d="M11.9,20.2h-4c-4.4,0-8-3.6-8-8v-4c0-4.4,3.6-8,8-8h4c4.4,0,8,3.6,8,8v4C19.9,16.6,16.3,20.2,11.9,20.2z"/>
	<path class="st1" d="M15.9,8.7h-4.5V4.2c0-0.8-0.7-1.5-1.5-1.5h0c-0.8,0-1.5,0.7-1.5,1.5v4.5H3.9c-0.8,0-1.5,0.7-1.5,1.5
		s0.7,1.5,1.5,1.5h4.5v4.5c0,0.8,0.7,1.5,1.5,1.5h0c0.8,0,1.5-0.7,1.5-1.5v-4.5h4.5c0.8,0,1.5-0.7,1.5-1.5S16.7,8.7,15.9,8.7z"/>
</g>
<path class="st2" d="M100.6-44.8c3.3,0,6,2.7,6,6v4c0,3.3-2.7,6-6,6h-4c-3.3,0-6-2.7-6-6v-4c0-3.3,2.7-6,6-6H100.6 M100.6-46.8h-4
	c-4.4,0-8,3.6-8,8v4c0,4.4,3.6,8,8,8h4c4.4,0,8-3.6,8-8v-4C108.6-43.3,105-46.8,100.6-46.8L100.6-46.8z"/>
<g>
	<path class="st2" d="M58.7-44.8c3.3,0,6,2.7,6,6v4c0,3.3-2.7,6-6,6h-4c-3.3,0-6-2.7-6-6v-4c0-3.3,2.7-6,6-6H58.7 M58.7-46.8h-4
		c-4.4,0-8,3.6-8,8v4c0,4.4,3.6,8,8,8h4c4.4,0,8-3.6,8-8v-4C66.7-43.3,63.1-46.8,58.7-46.8L58.7-46.8z"/>
	<path d="M62-41.1c-0.6-0.6-1.5-0.6-2.1,0l-5.3,5.3l-1.1-1.1c-0.6-0.6-1.5-0.6-2.1,0c-0.6,0.6-0.6,1.5,0,2.1l2.1,2.1
		c0.6,0.6,1.5,0.6,2.1,0L62-39C62.6-39.5,62.6-40.5,62-41.1z"/>
</g>
<g>
	<path class="st3" d="M16.8-26.8h-4c-4.4,0-8-3.6-8-8v-4c0-4.4,3.6-8,8-8h4c4.4,0,8,3.6,8,8v4C24.8-30.4,21.2-26.8,16.8-26.8z"/>
	<path class="st1" d="M16.9-36.8l3.2-3.2c0.6-0.6,0.6-1.5,0-2.1c-0.6-0.6-1.5-0.6-2.1,0L14.8-39l-3.2-3.2c-0.6-0.6-1.5-0.6-2.1,0
		c-0.6,0.6-0.6,1.5,0,2.1l3.2,3.2l-3.2,3.2c-0.6,0.6-0.6,1.5,0,2.1c0.6,0.6,1.5,0.6,2.1,0l3.2-3.2l3.2,3.2c0.6,0.6,1.5,0.6,2.1,0
		c0.6-0.6,0.6-1.5,0-2.1L16.9-36.8z"/>
</g>
<g>
	<path class="st4" d="M-35.8,5h-18.3C-54.6,5-55,4.6-55,4.2V3.8c0-0.5,0.4-0.8,0.8-0.8h18.3c0.5,0,0.8,0.4,0.8,0.8v0.3
		C-35,4.6-35.4,5-35.8,5z"/>
	<path class="st4" d="M-35.8,11h-18.3c-0.5,0-0.8-0.4-0.8-0.8V9.8c0-0.5,0.4-0.8,0.8-0.8h18.3c0.5,0,0.8,0.4,0.8,0.8v0.3
		C-35,10.6-35.4,11-35.8,11z"/>
	<path class="st4" d="M-35.8,17h-18.3c-0.5,0-0.8-0.4-0.8-0.8v-0.3c0-0.5,0.4-0.8,0.8-0.8h18.3c0.5,0,0.8,0.4,0.8,0.8v0.3
		C-35,16.6-35.4,17-35.8,17z"/>
</g>
</svg>
